<svg width="120" height="120" viewBox="0 0 120 120" fill="none" xmlns="http://www.w3.org/2000/svg">
<path d="M59.7 37C40 37 25 52 20 59.5C25 67 40 82 59.7 82C79.4 82 95 67 100 59.5C95 52 80 37 59.7 37Z" stroke="white" stroke-width="3"/>
<path d="M110 60C110 87.6142 87.6142 110 60 110C32.3858 110 10 87.6142 10 60C10 32.3858 32.3858 10 60 10C87.6142 10 110 32.3858 110 60Z" stroke="white" stroke-width="3"/>
<path fill-rule="evenodd" clip-rule="evenodd" d="M74.0277 65.6019C76.5962 62.4722 78 58.5487 78 54.5L69 54.5C69 59.1945 65.1944 63 60.5 63C55.8056 63 52 59.1945 52 54.5C52 49.8056 55.8056 46 60.5 46C62.8472 46 64.9722 46.9514 66.5104 48.4896L72.8744 42.1257C70.0115 39.2628 66.2445 37.4811 62.2153 37.0843C58.1861 36.6875 54.1439 37.7 50.7775 39.9493C47.4111 42.1987 44.9288 45.5457 43.7535 49.42C42.5783 53.2944 42.7827 57.4565 44.3321 61.197C45.8815 64.9375 48.6799 68.0251 52.2506 69.9337C55.8212 71.8422 59.9432 72.4536 63.9141 71.6638C67.885 70.8739 71.4592 68.7316 74.0277 65.6019Z" fill="white"/>
<circle cx="60.5" cy="54.5" r="8.5" fill="#C94949"/>
</svg>
